<?xml version="1.0" encoding="UTF-8" standalone="no"?>
<!DOCTYPE svg PUBLIC "-//W3C//DTD SVG 1.1//EN" "http://www.w3.org/Graphics/SVG/1.1/DTD/svg11.dtd">
<!-- Generated by Microsoft Visio, SVG Export statemachine.svg Page-1 -->
<svg xmlns="http://www.w3.org/2000/svg" xmlns:xlink="http://www.w3.org/1999/xlink" xmlns:ev="http://www.w3.org/2001/xml-events"
		xmlns:v="http://schemas.microsoft.com/visio/2003/SVGExtensions/" width="2.66869in" height="1.87866in"
		viewBox="0 0 192.146 135.264" xml:space="preserve" color-interpolation-filters="sRGB" class="st7">
	<v:documentProperties v:langID="1033" v:metric="true" v:viewMarkup="false"/>

	<style type="text/css">
	<![CDATA[
		.st1 {fill:#ffffff;stroke:#000000;stroke-linecap:round;stroke-linejoin:round;stroke-width:0.24}
		.st2 {fill:#000000;font-family:Calibri;font-size:0.833336em}
		.st3 {marker-start:url(#mrkr13-21);stroke:#000000;stroke-linecap:round;stroke-linejoin:round;stroke-width:0.75}
		.st4 {fill:#000000;fill-opacity:1;stroke:#000000;stroke-opacity:1;stroke-width:0.22935779816514}
		.st5 {marker-end:url(#mrkr13-27);stroke:#000000;stroke-linecap:round;stroke-linejoin:round;stroke-width:0.75}
		.st6 {marker-end:url(#mrkr13-48);stroke:#000000;stroke-linecap:round;stroke-linejoin:round;stroke-width:0.75}
		.st7 {fill:none;fill-rule:evenodd;font-size:12px;overflow:visible;stroke-linecap:square;stroke-miterlimit:3}
	]]>
	</style>

	<defs id="Markers">
		<g id="lend13">
			<path d="M 3 1 L 0 0 L 3 -1 L 3 1 " style="stroke:none"/>
		</g>
		<marker id="mrkr13-21" class="st4" v:arrowType="13" v:arrowSize="2" v:setback="12.6" refX="12.6" orient="auto"
				markerUnits="strokeWidth" overflow="visible">
			<use xlink:href="#lend13" transform="scale(4.36) "/>
		</marker>
		<marker id="mrkr13-27" class="st4" v:arrowType="13" v:arrowSize="2" v:setback="12.6" refX="-12.6" orient="auto"
				markerUnits="strokeWidth" overflow="visible">
			<use xlink:href="#lend13" transform="scale(-4.36,-4.36) "/>
		</marker>
		<marker id="mrkr13-48" class="st4" v:arrowType="13" v:arrowSize="2" v:setback="13.08" refX="-13.08" orient="auto"
				markerUnits="strokeWidth" overflow="visible">
			<use xlink:href="#lend13" transform="scale(-4.36,-4.36) "/>
		</marker>
	</defs>
	<g v:mID="0" v:index="1" v:groupContext="foregroundPage">
		<title>Page-1</title>
		<v:pageProperties v:drawingScale="0.0393701" v:pageScale="0.0393701" v:drawingUnits="24" v:shadowOffsetX="8.50394"
				v:shadowOffsetY="-8.50394"/>
		<g id="shape29-1" v:mID="29" v:groupContext="shape" transform="translate(69.3562,-99.5216)">
			<title>Ellipse</title>
			<desc>INIT</desc>
			<v:userDefs>
				<v:ud v:nameU="visVersion" v:val="VT0(15):26"/>
			</v:userDefs>
			<v:textBlock v:margins="rect(4,4,4,4)" v:tabSpace="42.5197"/>
			<v:textRect cx="26.7165" cy="117.453" width="46.76" height="31.1693"/>
			<path d="M0 117.45 A26.7165 17.811 0 0 1 53.43 117.45 A26.7165 17.811 0 1 1 0 117.45 Z" class="st1"/>
			<text x="18.53" y="120.45" class="st2" v:langID="1033"><v:paragraph v:horizAlign="1"/><v:tabList/>INIT</text>		</g>
		<g id="shape30-4" v:mID="30" v:groupContext="shape" transform="translate(138.592,-49.9153)">
			<title>Ellipse.30</title>
			<desc>STOP</desc>
			<v:userDefs>
				<v:ud v:nameU="visVersion" v:val="VT0(15):26"/>
			</v:userDefs>
			<v:textBlock v:margins="rect(4,4,4,4)" v:tabSpace="42.5197"/>
			<v:textRect cx="26.7165" cy="117.453" width="46.76" height="31.1693"/>
			<path d="M0 117.45 A26.7165 17.811 0 0 1 53.43 117.45 A26.7165 17.811 0 1 1 0 117.45 Z" class="st1"/>
			<text x="16.09" y="120.45" class="st2" v:langID="1033"><v:paragraph v:horizAlign="1"/><v:tabList/>STOP</text>		</g>
		<g id="shape31-7" v:mID="31" v:groupContext="shape" transform="translate(69.3562,-0.12)">
			<title>Ellipse.31</title>
			<desc>START</desc>
			<v:userDefs>
				<v:ud v:nameU="visVersion" v:val="VT0(15):26"/>
			</v:userDefs>
			<v:textBlock v:margins="rect(4,4,4,4)" v:tabSpace="42.5197"/>
			<v:textRect cx="26.7165" cy="117.453" width="46.76" height="31.1693"/>
			<path d="M0 117.45 A26.7165 17.811 0 0 1 53.43 117.45 A26.7165 17.811 0 1 1 0 117.45 Z" class="st1"/>
			<text x="13.94" y="120.45" class="st2" v:langID="1033"><v:paragraph v:horizAlign="1"/><v:tabList/>START</text>		</g>
		<g id="shape32-10" v:mID="32" v:groupContext="shape" transform="translate(0.12,-49.9153)">
			<title>Ellipse.32</title>
			<desc>RUN</desc>
			<v:userDefs>
				<v:ud v:nameU="visVersion" v:val="VT0(15):26"/>
			</v:userDefs>
			<v:textBlock v:margins="rect(4,4,4,4)" v:tabSpace="42.5197"/>
			<v:textRect cx="26.7165" cy="117.453" width="46.76" height="31.1693"/>
			<path d="M0 117.45 A26.7165 17.811 0 0 1 53.43 117.45 A26.7165 17.811 0 1 1 0 117.45 Z" class="st1"/>
			<text x="17.57" y="120.45" class="st2" v:langID="1033"><v:paragraph v:horizAlign="1"/><v:tabList/>RUN</text>		</g>
		<g id="shape33-13" v:mID="33" v:groupContext="shape" transform="translate(69.3562,-49.7263)">
			<title>Ellipse.33</title>
			<desc>ERROR</desc>
			<v:userDefs>
				<v:ud v:nameU="visVersion" v:val="VT0(15):26"/>
			</v:userDefs>
			<v:textBlock v:margins="rect(4,4,4,4)" v:tabSpace="42.5197"/>
			<v:textRect cx="26.7165" cy="117.453" width="46.76" height="31.1693"/>
			<path d="M0 117.45 A26.7165 17.811 0 0 1 53.43 117.45 A26.7165 17.811 0 1 1 0 117.45 Z" class="st1"/>
			<text x="12.82" y="120.45" class="st2" v:langID="1033"><v:paragraph v:horizAlign="1"/><v:tabList/>ERROR</text>		</g>
		<g id="shape34-16" v:mID="34" v:groupContext="shape" transform="translate(90.719,149.475) rotate(-143.212)">
			<title>Sheet.34</title>
			<path d="M6.93 130.98 L7.19 131.23 A43.624 31.4696 -38.06 0 0 53.09 124.55" class="st3"/>
		</g>
		<g id="shape35-22" v:mID="35" v:groupContext="shape" transform="translate(246.621,193.444) rotate(143.049)">
			<title>Sheet.35</title>
			<path d="M0 135.26 A42.5197 31.9843 36.95 0 1 44.88 130.07 L45.19 130.26" class="st5"/>
		</g>
		<g id="shape36-28" v:mID="36" v:groupContext="shape" transform="translate(-11.9556,225.428) rotate(-143.049)">
			<title>Sheet.36</title>
			<path d="M0 135.26 A42.5197 31.9843 143.05 0 1 45.86 128.76 L46.13 129" class="st5"/>
		</g>
		<g id="shape37-33" v:mID="37" v:groupContext="shape" transform="translate(-54.1675,-58.6) rotate(-36.7883)">
			<title>Sheet.37</title>
			<path d="M-0 135.26 A41.3771 32.1223 34.8 0 1 44.77 130.07 L45.08 130.26" class="st5"/>
		</g>
		<g id="shape38-38" v:mID="38" v:groupContext="shape" transform="translate(231.336,35.742) rotate(90)">
			<title>Sheet.38</title>
			<path d="M9.45 135.26 L9.81 135.26 L14.17 135.26" class="st3"/>
		</g>
		<g id="shape39-43" v:mID="39" v:groupContext="shape" transform="translate(55.1705,-67.7166) rotate(0.685122)">
			<title>Sheet.39</title>
			<path d="M0 135.26 L5.99 135.26" class="st6"/>
		</g>
		<g id="shape40-49" v:mID="40" v:groupContext="shape" transform="translate(140.21,202.791) rotate(179.315)">
			<title>Sheet.40</title>
			<path d="M0 135.26 L5.99 135.26" class="st6"/>
		</g>
		<g id="shape41-54" v:mID="41" v:groupContext="shape" transform="translate(-39.1909,99.5216) rotate(-90)">
			<title>Sheet.41</title>
			<path d="M0 135.26 L4.17 135.26" class="st6"/>
		</g>
	</g>
</svg>
